<svg width="840" height="356" viewBox="0 0 840 356" fill="none" xmlns="http://www.w3.org/2000/svg">
<path d="M706.5 258.221H540.3V351.721H706.5V258.221Z" fill="#393C42"/>
<path d="M706.5 258.221H643.4V351.721H706.5V258.221Z" fill="#B22453"/>
<path d="M674.9 286.921H652.8V340.621H674.9V286.921Z" fill="#FAF2F5"/>
<path d="M695.2 274.621C695.2 275.621 694.4 276.321 693.5 276.321C692.6 276.321 691.8 275.521 691.8 274.621C691.8 273.621 692.6 272.921 693.5 272.921C694.4 272.921 695.2 273.721 695.2 274.621Z" fill="#FAF2F5"/>
<path d="M700.6 283.521C699.6 283.521 698.9 282.721 698.9 281.821C698.9 280.821 699.7 280.121 700.6 280.121C701.5 280.121 702.3 280.921 702.3 281.821C702.4 282.721 701.6 283.521 700.6 283.521Z" fill="#FAF2F5"/>
<path d="M686.4 283.521C685.4 283.521 684.7 282.721 684.7 281.821C684.7 280.821 685.5 280.121 686.4 280.121C687.3 280.121 688.1 280.921 688.1 281.821C688.1 282.721 687.3 283.521 686.4 283.521Z" fill="#FAF2F5"/>
<path d="M698.6 288.521C699.539 288.521 700.3 287.76 700.3 286.821C700.3 285.882 699.539 285.121 698.6 285.121C697.661 285.121 696.9 285.882 696.9 286.821C696.9 287.76 697.661 288.521 698.6 288.521Z" fill="#FAF2F5"/>
<path d="M688.5 278.421C689.439 278.421 690.2 277.659 690.2 276.72C690.2 275.782 689.439 275.021 688.5 275.021C687.561 275.021 686.8 275.782 686.8 276.72C686.8 277.659 687.561 278.421 688.5 278.421Z" fill="#FAF2F5"/>
<path d="M688.6 288.221C689.539 288.221 690.3 287.46 690.3 286.521C690.3 285.582 689.539 284.821 688.6 284.821C687.661 284.821 686.9 285.582 686.9 286.521C686.9 287.46 687.661 288.221 688.6 288.221Z" fill="#FAF2F5"/>
<path d="M698.6 278.421C699.539 278.421 700.3 277.659 700.3 276.72C700.3 275.782 699.539 275.021 698.6 275.021C697.661 275.021 696.9 275.782 696.9 276.72C696.9 277.659 697.661 278.421 698.6 278.421Z" fill="#FAF2F5"/>
<path d="M693.5 283.521C694.439 283.521 695.2 282.76 695.2 281.821C695.2 280.882 694.439 280.121 693.5 280.121C692.561 280.121 691.8 280.882 691.8 281.821C691.8 282.76 692.561 283.521 693.5 283.521Z" fill="#FAF2F5"/>
<path d="M695.2 288.621C695.2 289.521 694.4 290.321 693.5 290.321C692.6 290.321 691.8 289.521 691.8 288.621C691.8 287.721 692.6 286.921 693.5 286.921C694.4 286.921 695.2 287.621 695.2 288.621Z" fill="#FAF2F5"/>
<path d="M287.9 322.22H136.3V317.42C136.3 306.22 145.4 297.12 156.6 297.12H267.6C278.8 297.12 287.9 306.22 287.9 317.42V322.22Z" stroke="#FFFFF8" stroke-width="4" stroke-miterlimit="10"/>
<path d="M231.6 322.221H193.6V338.221H231.6V322.221Z" stroke="#FFFFF8" stroke-width="4" stroke-miterlimit="10"/>
<path d="M136.3 322.221H115L95 145.021C95 126.121 110.4 110.721 129.3 110.721H183.7C202.6 110.721 218 126.121 218 145.021L235.2 297.221" stroke="#FFFFF8" stroke-width="4" stroke-miterlimit="10"/>
<path d="M184.6 95.8205H136.4C124.1 95.8205 114 85.7205 114 73.4205C114 61.1205 124.1 51.0205 136.4 51.0205H184.7C197 51.0205 207.1 61.1205 207.1 73.4205C207 85.7205 196.9 95.8205 184.6 95.8205Z" stroke="#FFFFF8" stroke-width="4" stroke-miterlimit="10"/>
<path d="M154.8 269.121H87.7C81.3 269.121 76 263.821 76 257.421C76 251.021 81.3 245.721 87.7 245.721H154.9C161.3 245.721 166.6 251.021 166.6 257.421C166.5 263.921 161.2 269.121 154.8 269.121Z" stroke="#FFFFF8" stroke-width="4" stroke-miterlimit="10"/>
<path d="M228 245.82H271.6C278 245.82 283.3 251.12 283.3 257.52C283.3 263.92 278 269.22 271.6 269.22H232" stroke="#FFFFF8" stroke-width="4" stroke-miterlimit="10"/>
<path d="M320.6 244.32C320.6 244.32 461.4 270.02 515.4 351.72H436.7L314.2 314.12L320.6 244.32Z" fill="#313338"/>
<path d="M471.1 198.12C468.7 189.02 471.6 176.42 463.5 169.82C459 166.22 451.3 165.82 445.7 166.82C441.5 167.52 416.9 178.621 411.5 182.921C411.5 182.921 395.2 184.021 365.6 146.521L330.4 183.521C330.4 183.521 371.6 239.52 411.9 231.22C430.4 227.42 441.6 217.42 447.4 207.12C447.5 208.92 447.9 210.62 448.9 211.22C454.1 213.92 455.9 200.221 457.4 198.021C457.4 200.921 455.6 212.821 457.9 213.921C462.1 215.921 464.8 200.22 465 197.72C466.5 200.62 466 208.32 469.2 210.12C471.5 211.42 473.6 209.12 473.7 206.72C473.9 203.82 471.8 200.82 471.1 198.12Z" fill="#E52959"/>
<path d="M365.7 146.521L330.5 183.521C330.5 183.521 336.3 191.42 345.7 200.82C359.4 184.52 382 164.921 382 164.921C377.1 160.121 371.7 154.121 365.7 146.521Z" fill="#393C42"/>
<path d="M445.2 175.221C442.1 175.921 439.8 180.821 439.1 183.621C438.5 186.221 436.5 187.821 435.1 190.021C434.1 191.621 433.1 194.621 435.3 195.621C437.2 196.421 439.2 194.721 440.5 193.621C441.8 192.621 444.7 188.521 445.2 187.321C445.3 192.121 439.9 199.421 439.4 204.321C439.3 205.621 439.2 208.121 440.9 208.321C442.5 208.521 444.2 206.221 445 205.121C446.9 202.621 449.3 197.421 450.2 194.421C449.8 196.821 448.1 205.521 447.6 208.321" stroke="#393C42" stroke-miterlimit="10"/>
<path d="M411.5 182.921C411.5 182.921 404 185.321 402.1 188.021" stroke="#471C54" stroke-miterlimit="10" stroke-linecap="round" stroke-linejoin="round"/>
<path d="M311.6 62.5204C311.6 62.5204 268 46.1204 212.6 88.5204C164.2 125.62 171.3 245.82 171.3 245.82H320C320 245.82 323.3 195.32 327.3 183.82L337.6 195.52C337.6 195.52 358.9 163.22 381.9 163.22C381.9 163.22 372.8 156.52 367.2 141.22C361.7 125.82 361.2 80.8204 311.6 62.5204Z" fill="#E52959"/>
<path d="M367.3 141.121C362.4 127.721 361.4 91.5207 327.9 70.4207C327.7 70.3207 327.4 70.3207 327.2 70.2207C275.9 53.6207 250.4 88.3207 250.4 88.3207C218.8 89.3207 228 173.621 228 173.621L225.6 245.821H320C320 245.821 323.3 195.321 327.3 183.821L337.6 195.521C337.6 195.521 358.9 163.221 381.9 163.221C382 163.121 372.9 156.521 367.3 141.121Z" fill="#B22453"/>
<path d="M284.7 59.2207C284.7 59.2207 284.5 106.221 312 110.421C333.7 113.721 329.8 69.5207 329.8 69.5207" stroke="#393C42" stroke-miterlimit="10"/>
<path d="M333.7 132.721C329.5 152.521 327.4 176.421 327.4 176.421" stroke="#393C42" stroke-miterlimit="10"/>
<path d="M247.5 87.0205C247.5 87.0205 273.4 96.9205 270.7 117.221C267.5 141.721 274.9 165.421 274.9 165.421" stroke="#393C42" stroke-miterlimit="10"/>
<path d="M264 88.3203C264 88.3203 272.7 96.4203 273 103.12" stroke="#393C42" stroke-miterlimit="10"/>
<path d="M177.3 245.82C177.3 245.82 176 294.82 213.3 303.52C250.6 312.22 320.5 321.52 320.5 321.52L323.6 351.82H392C392 351.82 433.3 276.92 382 255.52C330.7 234.12 177.3 245.82 177.3 245.82Z" fill="#393C42"/>
<path d="M407.7 295.02C407.4 278.82 401.1 263.42 382 255.52C349.7 242.12 277.1 241.72 227.6 243.32C228.4 246.72 233.7 262.42 260.2 267.32C290 272.82 350.4 260.32 372 281.82C385.1 294.92 398.3 297.12 407.7 295.02Z" fill="#393C42"/>
<path d="M332.9 55.8414L320.562 62.0225L331.669 84.1961L344.008 78.0151L332.9 55.8414Z" fill="#471C54"/>
<path d="M350.098 91.6878C355.144 86.4257 354.936 78.0388 349.634 72.9551C344.332 67.8713 335.944 68.0159 330.898 73.2779C325.853 78.5399 326.061 86.9269 331.363 92.0106C336.665 97.0943 345.053 96.9498 350.098 91.6878Z" fill="#393C42"/>
<path d="M340.5 89.4201C336.7 89.4201 333.7 86.5201 333.6 82.7201C333.5 78.9201 336.5 75.7201 340.3 75.6201H340.5C344.3 75.6201 347.3 78.5201 347.4 82.3201C347.5 86.1201 344.5 89.3201 340.7 89.4201H340.5Z" fill="#FAF2F5"/>
<path d="M340.5 76.1201C344 76.1201 346.8 78.8201 346.9 82.3201C346.9 84.0201 346.3 85.6201 345.2 86.9201C344 88.1201 342.4 88.8201 340.7 88.9201C340.6 88.9201 340.6 88.9201 340.5 88.9201C337 88.9201 334.2 86.2201 334.1 82.7201C334.1 81.0201 334.7 79.4201 335.8 78.1201C337 76.9201 338.6 76.2201 340.3 76.1201C340.4 76.1201 340.4 76.1201 340.5 76.1201ZM340.5 75.1201C340.4 75.1201 340.4 75.1201 340.3 75.1201C336.2 75.2201 333 78.6201 333.1 82.7201C333.2 86.7201 336.5 89.9201 340.5 89.9201C340.6 89.9201 340.6 89.9201 340.7 89.9201C344.8 89.8201 348 86.4201 347.9 82.3201C347.7 78.3201 344.5 75.1201 340.5 75.1201Z" fill="black"/>
<path d="M370.2 22.6199C382.7 20.4199 379.4 1.41994 373.2 7.11994C367 12.8199 349.4 1.31994 339.7 0.119938C330 -1.08006 327.2 7.11994 327.2 7.11994C327.2 7.11994 320 4.11994 314.9 13.3199C309.8 22.5199 317.2 30.1199 316.5 37.5199C315.8 44.9199 311.5 44.3199 312 50.3199C312.2 53.2199 314 54.6199 315.8 55.2199C315.8 55.2199 315.8 55.2199 315.9 55.2199C317.5 55.8199 332.2 61.2199 343.1 56.3199C352 52.3199 360.8 36.0199 364.4 28.7199C372 31.3199 379.8 26.1199 380.4 23.2199C381.2 20.0199 370.2 22.6199 370.2 22.6199Z" fill="#393C42"/>
<path d="M339.8 71.6199L326.3 50.4199L306.8 61.2199C303.4 60.4199 298.3 59.6199 291.8 59.4199C292.3 65.8199 295.8 103.42 312 105.52C321 106.72 323.9 95.2199 324.5 83.6199L339.8 71.6199Z" fill="#EBA989"/>
<path d="M332 77.6203L339.7 71.5203L326.2 50.3203C326.2 50.3203 322.2 65.2203 332 77.6203Z" fill="#393C42"/>
<path d="M362.2 27.9196C354 23.3196 345.6 26.3196 345.6 26.3196C345.6 26.3196 342.6 34.4196 335.9 38.8196C333.7 40.2196 332.2 42.4196 331.7 44.9196L331.4 46.1196L327.3 45.3196C327.3 45.3196 328.3 36.3196 321.4 36.1196C318.9 36.2196 317.1 36.8196 315.6 38.7196C311.8 43.7196 316.2 52.2196 323.3 53.0196C328 67.0196 343 78.6196 354.2 76.2196C361.9 74.5196 371.8 47.8196 367.3 29.4196C365.6 29.3196 363.9 28.8196 362.2 27.9196Z" fill="#EBA989"/>
<path d="M323.5 46.0201C323.5 46.0201 325 38.4201 319.5 38.9201C318.1 39.0201 317.2 39.9201 316.7 41.2201" stroke="#393C42" stroke-miterlimit="10"/>
<path d="M363 42.9199C363 42.9199 365 55.8199 362.6 58.5199C360.2 61.2199 354.9 56.2199 354.9 56.2199" stroke="#393C42" stroke-miterlimit="10"/>
<path d="M348.1 57.72C348.1 57.72 352.1 57.52 353.6 60.92" stroke="#393C42" stroke-miterlimit="10"/>
<path d="M349.3 34.7197C349.3 34.7197 358.8 39.9197 360.5 39.5197C362.3 39.1197 361.9 36.4197 361.9 36.4197" stroke="#393C42" stroke-miterlimit="10"/>
<path d="M364.8 40.6201H369.8" stroke="#393C42" stroke-miterlimit="10"/>
<path d="M317.7 97.8203L309.8 312.42C309.4 322.12 317.2 330.22 327 330.22C336.2 330.22 343.8 322.92 344.2 313.62L346.4 251.72" stroke="#FFFFF8" stroke-width="3" stroke-miterlimit="10" stroke-linecap="round" stroke-linejoin="round"/>
<path d="M309.811 52.1341L296.906 56.7305L307.642 86.8745L320.547 82.2781L309.811 52.1341Z" fill="#393C42"/>
<path d="M303.9 76.4196L307.7 86.9196L320.7 82.3196L316.4 70.2196C311.2 69.8196 306.4 72.3196 303.9 76.4196Z" fill="#E52959"/>
<path d="M329.8 87.6203C329.1 94.9203 322.6 100.22 315.4 99.5203C308.1 98.8203 302.8 92.3203 303.5 85.1203C304.2 77.8203 310.7 72.5203 317.9 73.2203C325.1 73.8203 330.5 80.3203 329.8 87.6203Z" fill="#393C42"/>
<path d="M316.6 93.2195C316.4 93.2195 316.2 93.2195 315.9 93.2195C314.1 93.0195 312.4 92.2195 311.2 90.7195C310 89.3195 309.5 87.5195 309.7 85.7195C310 82.1195 313 79.5195 316.5 79.5195C316.7 79.5195 316.9 79.5195 317.2 79.5195C319 79.7195 320.7 80.5195 321.9 82.0195C323.1 83.4195 323.6 85.2195 323.4 87.0195C323.1 90.5195 320.1 93.2195 316.6 93.2195Z" fill="#FAF2F5"/>
<path d="M316.6 79.9199C316.8 79.9199 317 79.9199 317.2 79.9199C318.9 80.1199 320.4 80.9199 321.5 82.2199C322.6 83.5199 323.1 85.2199 322.9 86.9199C322.6 90.2199 319.9 92.7199 316.6 92.7199C316.4 92.7199 316.2 92.7199 316 92.7199C312.5 92.4199 309.9 89.2199 310.2 85.7199C310.5 82.4199 313.3 79.9199 316.6 79.9199ZM316.6 78.9199C312.8 78.9199 309.6 81.8199 309.3 85.6199C308.9 89.7199 311.9 93.3199 316 93.6199C316.2 93.6199 316.5 93.6199 316.7 93.6199C320.5 93.6199 323.7 90.7199 324 86.9199C324.4 82.8199 321.4 79.2199 317.3 78.9199C317 79.0199 316.8 78.9199 316.6 78.9199Z" fill="black"/>
<path d="M275 165.521C275 165.521 209.2 170.121 197.2 194.021C185.2 217.921 275.2 172.62 275.2 172.62L275 165.521Z" fill="#B22453"/>
<path d="M210.7 181.521C210.7 181.521 247 161.521 275 165.521C275 165.521 273.7 182.221 283 181.521C292.3 180.821 349 148.821 373.3 170.821C373.3 170.821 378 176.821 386.5 175.821C386.5 175.821 392.7 174.821 391.5 180.021C390.3 185.221 382 184.521 382 184.521C382 184.521 400.5 192.321 398.5 203.021C396.5 213.721 390 195.521 378.3 194.021C378.3 194.021 389.3 204.521 382.1 211.521C374.9 218.521 377.1 200.321 367.9 196.721C367.9 196.721 372.1 211.421 364.9 213.021C357.7 214.721 363.9 201.421 358.1 197.921C358.1 197.921 359.1 206.121 353.3 206.421C347.5 206.721 353.5 197.221 348.5 192.621C348.5 192.621 341.5 195.921 336.4 193.721C336.4 193.721 290.8 249.821 248.8 238.121C206.8 226.421 210.7 181.521 210.7 181.521Z" fill="#EBA989"/>
<path d="M275.3 172.521C274.7 168.821 275 165.521 275 165.521C247 161.521 210.7 181.521 210.7 181.521C210.7 181.521 209.4 196.521 216.4 211.521C232.7 188.621 275.3 172.521 275.3 172.521Z" fill="#393C42"/>
<path d="M336.4 193.92C336.4 193.92 330.5 191.92 329.8 186.82" stroke="#471C54" stroke-miterlimit="10" stroke-linecap="round" stroke-linejoin="round"/>
<path d="M281.2 180.521C281.2 180.521 262.7 185.32 260.2 196.12" stroke="#393C42" stroke-miterlimit="10"/>
<path d="M513.7 227.021H330.5V235.22H513.7V227.021Z" fill="#E52959"/>
<path d="M513.7 227.021H384.1V235.22H513.7V227.021Z" fill="#393C42"/>
<path d="M589.6 174.22H398.6L408.6 43.8203H599.6L589.6 174.22Z" fill="#393C42"/>
<path d="M408.4 174.22H398.6L408.6 43.8203H418.4L408.4 174.22Z" fill="#E52959"/>
<path d="M530.6 158.32H480.1L482.8 129.12H533.3L530.6 158.32Z" fill="#FAF2F5"/>
<path d="M530.6 158.32H526.5V129.12H533.3L530.6 158.32Z" fill="#393C42"/>
<path d="M536.5 227.021H503L493 165.021H526.5L536.5 227.021Z" fill="#E52959"/>
<path d="M559.5 227.021H449V235.82H559.5V227.021Z" fill="#E52959"/>
<path d="M559.5 227.021H492.6V235.82H559.5V227.021Z" fill="#B22453"/>
<path d="M486.7 351.72L516.7 251.72H624V351.72" stroke="#FFFFF8" stroke-width="4" stroke-miterlimit="10"/>
<path d="M667 237.92H235.7V251.82H667V237.92Z" stroke="#FFFFF8" stroke-width="4" stroke-miterlimit="10"/>
<path d="M254.7 351.72L284.7 251.72H392V351.72" stroke="#FFFFF8" stroke-width="4" stroke-miterlimit="10"/>
<path d="M0.9755 353.182C35.8942 352.929 70.8129 352.76 105.732 352.591L210.488 352.253C227.947 352.169 245.406 352.169 262.866 352.169L315.244 352.084L420 352L524.756 352.084C559.675 352.169 594.594 352.084 629.512 352.253L734.268 352.591C769.187 352.76 804.106 352.929 839.024 353.182C839.588 353.182 840.151 353.436 839.963 353.689C839.963 353.942 839.588 354.111 839.024 354.111C804.106 354.364 769.187 354.449 734.268 354.702L629.512 355.04C594.594 355.209 559.675 355.209 524.756 355.209L420 355.293L315.244 355.209L262.866 355.124C245.406 355.124 227.947 355.124 210.488 355.04L105.732 354.702C70.8129 354.533 35.8942 354.364 0.9755 354.111C0.412295 354.111 -0.15091 353.858 0.0368247 353.604C0.0368247 353.351 0.60003 353.182 0.9755 353.182Z" fill="#393C42"/>
</svg>
