<svg width="116" height="148" viewBox="0 0 116 148" fill="none" xmlns="http://www.w3.org/2000/svg">
<path d="M78.9389 139.07C88.2843 139.333 87.6838 145.675 86.3702 146.726C85.0941 147.777 82.5419 148.603 77.1748 146.726C71.7703 144.85 58.2963 145.938 58.2963 145.938L58.5965 141.547L78.9389 139.07Z" fill="#E52959"/>
<path d="M23.0538 139.07C13.7084 139.333 14.3089 145.675 15.6225 146.726C16.8986 147.777 19.4507 148.603 24.8178 146.726C30.1849 144.85 43.6964 145.938 43.6964 145.938L43.3961 141.547L23.0538 139.07Z" fill="#E52959"/>
<path d="M33.9757 103.49C33.9757 103.49 35.3643 118.953 32.0615 121.73C28.7963 124.47 22.6035 122.931 22.6035 122.931C22.6035 122.931 23.6544 116.513 22.9037 114.224C22.1531 111.934 24.4426 113.023 24.7428 111.334C25.0431 109.645 24.2924 102.814 24.2924 102.814" fill="#EBA989"/>
<path d="M24.7428 111.372C24.7428 111.372 26.9196 110.921 28.4209 111.372" stroke="#393C42" stroke-width="0.5701" stroke-miterlimit="10"/>
<path d="M80.2901 57.1004L90.2736 52.5215C90.2736 52.5215 91.0242 26.9247 90.799 25.2358L95.2278 24.6353C95.2278 24.6353 105.512 50.6449 100.182 56.1996C94.8525 61.7168 81.5286 68.5101 81.5286 68.5101C81.5286 68.5101 79.4644 62.9554 80.2901 57.1004Z" fill="#EBA989"/>
<path d="M90.2736 52.5591C90.2736 52.5591 92.4504 53.8352 93.2011 53.8727" stroke="#393C42" stroke-width="0.5701" stroke-miterlimit="10"/>
<path d="M95.3404 25.0481C95.3404 25.0481 94.2519 21.8203 94.5522 19.6435C94.8525 17.4666 95.0776 13.2255 93.3136 12.9253C91.5496 12.5875 87.4587 11.8368 86.4828 13.3756C86.4828 13.3756 85.6196 12.625 85.1317 13.4507C84.6438 14.2764 84.869 16.5283 84.7188 16.9412C84.5687 17.3916 85.9949 18.4049 86.5204 19.8311C87.0458 21.2573 88.3219 23.0964 89.5229 24.1098C90.7615 25.1231 91.1743 25.9113 91.1743 25.9113C91.1743 25.9113 95.0026 25.2733 95.3404 25.0481Z" fill="#EBA989"/>
<path d="M86.5204 13.3379C86.5204 13.3379 86.3702 14.3137 86.5954 15.4772C86.8582 16.6407 86.7456 18.217 87.7214 17.9543C87.7214 17.9543 88.397 18.9677 89.4103 18.6674C89.4103 18.6674 90.236 19.2679 90.5738 18.78C90.5738 18.78 90.9491 18.4798 90.161 17.4664" stroke="#393C42" stroke-width="0.5701" stroke-miterlimit="10"/>
<path d="M86.0324 70.8744C86.0324 70.8744 87.346 71.625 87.346 65.207L84.1558 67.0836C84.1558 67.0836 84.0807 70.2363 86.0324 70.8744Z" fill="#393C42"/>
<path d="M85.507 70.5743C83.3676 69.7486 83.6679 54.2479 81.6036 53.5723C79.5394 52.8967 73.3091 56.6875 69.9312 56.7625C66.5909 56.8376 63.6634 59.2772 60.6984 58.6767C57.9585 58.1137 56.0069 60.4031 54.9935 60.7409C54.8809 62.2047 54.7308 64.0437 54.4681 66.1455C53.7549 71.6252 48.9133 76.0539 44.1092 75.3033C39.3052 74.5527 39.4553 70.6493 39.08 68.3599C38.9298 67.4591 38.6296 66.9337 38.3293 66.6334C37.3535 66.8211 36.3401 68.9604 32.662 70.7619C29.0214 72.5259 28.0456 73.727 25.5309 76.0164C23.0163 78.3058 23.5793 79.094 23.0914 83.5228C22.5659 87.914 22.4158 90.6163 22.3407 93.5438C22.2657 96.4713 19.6384 104.653 22.9037 103.715C26.169 102.814 35.0265 104.278 35.0265 104.278L34.9139 101.2C34.9139 101.2 37.8789 102.589 38.4419 106.117C39.0049 109.645 30.6728 123.044 34.426 123.044C38.1792 123.044 47.7874 119.741 54.0552 118.24C60.323 116.739 66.5533 121.43 70.5317 120.642C74.5476 119.854 77.6253 116.513 77.6253 116.513C77.6253 116.513 77.963 103.49 76.8371 100.262C75.7111 97.0718 75.6736 84.6112 75.3358 82.4719C74.998 80.3326 76.0864 78.2683 79.3893 74.5527C82.6921 70.7995 87.6463 71.4375 85.507 70.5743Z" fill="#E52959"/>
<path d="M75.486 80.5951C75.486 80.5951 68.993 75.228 67.1539 70.499" stroke="#393C42" stroke-width="0.6093" stroke-miterlimit="10"/>
<path d="M73.0465 78.3804C73.0465 78.3804 70.4192 72.0375 70.8696 70.0483" stroke="#393C42" stroke-width="0.6093" stroke-miterlimit="10"/>
<path d="M60.7359 58.6763C60.7359 58.6763 59.7601 64.4562 60.7359 66.3703" stroke="#393C42" stroke-width="0.6093" stroke-miterlimit="10"/>
<path d="M38.2543 72.7134C38.2543 72.7134 39.8682 77.1421 44.8975 77.5175C49.9268 77.8928 53.6424 72.7134 53.6424 72.7134" stroke="#393C42" stroke-width="0.6093" stroke-miterlimit="10"/>
<path d="M34.8765 101.2C34.8765 101.2 32.7372 96.959 32.7372 95.1575C32.7372 93.3184 31.4236 87.7637 31.4236 87.7637" stroke="#393C42" stroke-width="0.6093" stroke-miterlimit="10"/>
<path d="M25.4935 76.0161C25.4935 76.0161 29.059 77.5174 30.1475 81.0829" stroke="#393C42" stroke-width="0.6093" stroke-miterlimit="10"/>
<path d="M32.6996 94.4442C32.6996 94.4442 32.4369 92.5301 33.15 88.2515" stroke="#393C42" stroke-width="0.6093" stroke-miterlimit="10"/>
<path d="M51.353 105.779C50.79 106.342 42.7957 113.36 35.8523 114.411" stroke="#393C42" stroke-width="0.6093" stroke-miterlimit="10"/>
<path d="M76.1616 96.2832C76.1616 96.2832 72.1457 110.095 68.1673 113.323" stroke="#393C42" stroke-width="0.6093" stroke-miterlimit="10"/>
<path d="M39.0799 68.3599C39.4553 70.6494 39.3051 74.5527 44.1092 75.3034C48.9133 76.054 53.7549 71.6252 54.468 66.1456C54.7308 64.0438 54.9184 62.2047 54.9935 60.741C54.9184 60.7785 54.8434 60.7785 54.7683 60.7785C53.8675 60.7785 54.0927 57.8135 54.0927 57.8135L37.8414 63.5183L38.2918 66.5959C38.6296 66.9713 38.9298 67.4967 39.0799 68.3599Z" fill="#EBA989"/>
<path opacity="0.6" d="M54.0927 57.9261C54.0927 57.8886 54.0927 57.8511 54.0927 57.8511L37.8414 63.5559L38.2918 66.6335C38.6296 66.9338 38.8923 67.4968 39.0424 68.36C39.0424 68.3975 39.0424 68.4726 39.0799 68.5101C45.7982 68.2474 52.3663 64.4567 54.0927 57.9261Z" fill="#393C42"/>
<path d="M28.5335 97.9724C26.3942 97.7097 21.8904 97.9349 18.9253 99.774C18.7752 99.849 18.6626 99.9616 18.5125 100.037C18.5125 99.8866 18.475 99.7364 18.3624 99.6614C18.0621 99.3611 17.3115 99.6989 16.711 100.337C16.1105 101.013 15.8853 101.763 16.1855 102.063C16.2606 102.138 16.4107 102.176 16.5608 102.176C15.8853 103.452 15.8853 104.653 15.9603 105.291C16.0729 106.38 15.3223 108.707 13.1454 110.546C10.931 112.385 10.7809 117.789 15.4349 119.366C20.0888 120.942 20.8395 116.476 21.4025 113.773C21.9654 111.071 23.6919 105.216 25.043 104.24C25.043 104.24 28.6461 103.377 30.4101 101.838C32.1366 100.374 30.6728 98.2352 28.5335 97.9724Z" fill="#B22453"/>
<path d="M77.6628 116.513C77.6628 116.513 82.5795 110.583 90.4612 110.095C98.3429 109.645 103.935 118.427 101.195 125.408C98.4555 132.389 94.5522 136.142 89.2977 138.207C84.0432 140.271 62.9878 141.172 62.9878 141.172V146.276C62.9878 146.276 41.6321 145.413 35.4018 146.088C29.1715 146.764 9.73 143.011 4.21281 138.094C-1.26685 133.177 0.909997 123.269 4.66319 120.379C8.41638 117.489 35.7772 122.406 41.8198 121.542C47.8624 120.717 53.2295 114.637 60.6608 115.575C68.1672 116.513 77.6628 116.513 77.6628 116.513Z" fill="#393C42"/>
<path d="M63.0254 141.21C63.0254 141.21 54.1678 137.194 47.7874 135.167C41.407 133.14 23.5418 125.934 23.5418 125.934" stroke="#72767D" stroke-width="0.6093" stroke-miterlimit="10" stroke-linecap="round" stroke-linejoin="round"/>
<path d="M46.1735 134.304C46.1735 134.304 52.1786 130.813 57.4706 129.349C62.725 127.886 71.1322 122.781 74.3975 120.83" stroke="#72767D" stroke-width="0.6093" stroke-miterlimit="10" stroke-linecap="round" stroke-linejoin="round"/>
<path d="M38.7047 125.07C38.7047 125.07 49.5889 128.035 52.4038 131.15" stroke="#72767D" stroke-width="0.6093" stroke-miterlimit="10" stroke-linecap="round" stroke-linejoin="round"/>
<path d="M19.3757 123.044C19.3757 123.044 20.2765 123.869 21.4775 123.682C22.6785 123.494 24.0672 120.416 24.0672 119.253C24.0672 118.089 24.1048 116.851 24.4801 115.65C24.8554 114.449 24.2549 112.572 23.8796 112.685C23.8796 112.685 24.6677 110.47 23.204 110.095C21.7402 109.72 21.0271 113.398 21.1022 114.374C21.1773 115.312 19.3757 117.376 19.3757 117.376C19.3757 117.376 20.5017 113.698 20.4266 112.535C20.3516 111.371 18.7377 110.846 17.6868 112.422C16.6359 113.998 17.0488 114.486 16.1105 116.138C15.2097 117.789 15.0971 117.827 14.1588 117.602C13.258 117.376 13.1079 117.151 13.258 115.838C13.3706 114.524 14.4591 112.873 13.6334 111.822C12.7701 110.771 11.3064 113.248 10.5933 114.937C9.88016 116.626 10.2179 118.39 11.5691 118.953C12.9578 119.516 13.1454 119.741 14.0087 121.092C14.8719 122.443 16.4482 121.467 16.7485 122.03C17.0488 122.593 17.987 123.719 19.3757 123.044Z" fill="#FAC9A3"/>
<path d="M23.8796 112.685C23.8796 112.685 23.5418 113.698 23.129 115.387C22.7161 117.076 22.7912 117.414 21.9655 118.578C21.1398 119.741 20.9521 121.355 20.9521 121.355" stroke="#393C42" stroke-width="0.5249" stroke-miterlimit="10"/>
<path d="M19.3758 117.376C19.3758 117.376 18.2874 119.891 17.7244 120.341" stroke="#393C42" stroke-width="0.5249" stroke-miterlimit="10"/>
<path d="M15.3975 117.376L14.4216 119.628" stroke="#393C42" stroke-width="0.5249" stroke-miterlimit="10"/>
<path d="M57.283 46.8917C57.283 46.7416 57.283 46.5914 57.283 46.4413C57.5082 38.2593 55.7067 28.6512 47.9376 24.4476C41.407 20.9196 31.7989 22.4584 26.6945 27.9381C20.6894 34.3936 22.0781 44.0768 24.893 51.7708C24.9305 51.921 25.0056 52.0336 25.0431 52.1837C23.8421 52.7091 23.1665 54.0227 23.4668 55.3364C23.692 56.2747 24.3676 56.9878 25.2683 57.288C26.019 57.5508 26.8071 57.4006 27.5953 57.3256C28.7963 59.2397 30.2601 60.9662 31.9865 62.3924C38.8549 68.1723 49.3263 66.4458 53.9802 58.7518C55.1437 56.8376 55.9694 54.7359 56.4949 52.5215C57.2455 52.3713 58.0337 52.2212 58.6717 51.7333C59.4224 51.1703 59.8352 50.2696 59.7602 49.3313C59.6476 48.0176 58.5591 47.0043 57.283 46.8917Z" fill="#EBA989"/>
<path d="M34.3511 46.8165C33.6005 46.7039 32.8123 46.8165 32.1368 47.0417C31.4612 47.2669 30.8607 47.7173 30.4853 48.3553C30.0725 48.9558 29.8473 49.6689 29.7347 50.4196C29.6221 51.1702 29.5471 51.9208 29.5471 52.6715C29.3969 51.9208 29.3594 51.1327 29.4345 50.382C29.5095 49.5939 29.7347 48.8432 30.1476 48.1301C30.2602 47.98 30.3728 47.7923 30.5229 47.6422L30.7481 47.417L30.9733 47.2294C31.1234 47.1168 31.3111 47.0042 31.4987 46.9291C31.6864 46.8165 31.874 46.779 32.0617 46.7414C32.2493 46.6664 32.437 46.6664 32.6622 46.6288C32.8499 46.6288 33.0375 46.5913 33.2627 46.5913C33.6005 46.5913 33.9758 46.6664 34.3511 46.8165Z" fill="#0A2D4D"/>
<path d="M34.2762 52.7089C35.5199 52.7089 36.5281 51.7007 36.5281 50.457C36.5281 49.2133 35.5199 48.2051 34.2762 48.2051C33.0325 48.2051 32.0242 49.2133 32.0242 50.457C32.0242 51.7007 33.0325 52.7089 34.2762 52.7089Z" fill="#0A2D4D"/>
<path d="M32.9626 50.2318C33.2943 50.2318 33.5631 49.9629 33.5631 49.6313C33.5631 49.2996 33.2943 49.0308 32.9626 49.0308C32.631 49.0308 32.3621 49.2996 32.3621 49.6313C32.3621 49.9629 32.631 50.2318 32.9626 50.2318Z" fill="white"/>
<path d="M33.4881 50.7574C33.6332 50.7574 33.7508 50.6398 33.7508 50.4947C33.7508 50.3496 33.6332 50.2319 33.4881 50.2319C33.343 50.2319 33.2254 50.3496 33.2254 50.4947C33.2254 50.6398 33.343 50.7574 33.4881 50.7574Z" fill="white"/>
<path d="M46.7368 44.7521C47.037 44.4893 47.3748 44.3392 47.7501 44.1891C47.9378 44.114 48.1255 44.0765 48.3131 44.0389C48.5008 44.0014 48.6884 43.9639 48.9136 43.9263C49.1013 43.9263 49.3265 43.8888 49.5141 43.9263C49.7018 43.9639 49.927 43.9639 50.1146 44.0389L50.4149 44.1515L50.6776 44.3017C50.8653 44.3767 51.0154 44.5269 51.2031 44.6395C51.8411 45.1274 52.2915 45.8029 52.5917 46.516C52.9295 47.2292 53.1172 47.9798 53.2298 48.7304C52.9671 48.0173 52.6668 47.3042 52.329 46.6662C51.9537 46.0281 51.5409 45.3901 50.9403 44.9772C50.3774 44.5269 49.6643 44.2641 48.9512 44.3017C48.163 44.2641 47.4123 44.4143 46.7368 44.7521Z" fill="#0A2D4D"/>
<path d="M48.088 50.4194C49.3317 50.4194 50.3399 49.4111 50.3399 48.1674C50.3399 46.9237 49.3317 45.9155 48.088 45.9155C46.8443 45.9155 45.836 46.9237 45.836 48.1674C45.836 49.4111 46.8443 50.4194 48.088 50.4194Z" fill="#0A2D4D"/>
<path d="M46.7744 47.9427C47.1061 47.9427 47.3749 47.6739 47.3749 47.3422C47.3749 47.0106 47.1061 46.7417 46.7744 46.7417C46.4428 46.7417 46.1739 47.0106 46.1739 47.3422C46.1739 47.6739 46.4428 47.9427 46.7744 47.9427Z" fill="white"/>
<path d="M47.3375 48.4678C47.4826 48.4678 47.6002 48.3502 47.6002 48.2051C47.6002 48.06 47.4826 47.9424 47.3375 47.9424C47.1924 47.9424 47.0747 48.06 47.0747 48.2051C47.0747 48.3502 47.1924 48.4678 47.3375 48.4678Z" fill="white"/>
<path d="M39.8682 53.347C39.9808 53.0093 40.206 52.6715 40.4687 52.4087C40.7315 52.146 41.1068 51.9584 41.4821 51.8833C41.8574 51.8082 42.2703 51.8458 42.608 51.9584C42.7957 51.9959 42.9458 52.1085 43.096 52.1835C43.2461 52.2961 43.3962 52.4087 43.5088 52.5213C43.3211 52.4838 43.171 52.4087 42.9834 52.3712C42.7957 52.3337 42.6456 52.2586 42.4954 52.2586C42.4204 52.2586 42.3453 52.2211 42.2327 52.2211H41.97C41.8949 52.2211 41.8199 52.2211 41.7448 52.2211C41.6697 52.2211 41.5947 52.2211 41.5196 52.2586C40.9566 52.4463 40.3937 52.8591 39.8682 53.347Z" fill="#393C42"/>
<path d="M45.7232 55.2612C45.498 55.9368 45.0851 56.5373 44.5597 57.0252C44.0342 57.5131 43.3587 57.8885 42.608 58.0386C42.4204 58.0761 42.2327 58.1137 42.045 58.1137C41.8574 58.1137 41.6697 58.1512 41.4821 58.1137C41.2944 58.0761 41.1067 58.0761 40.9191 58.0386C40.7314 58.0011 40.5813 57.926 40.3936 57.8885C40.3186 57.8509 40.206 57.8509 40.1309 57.8134C40.0559 57.7759 39.9808 57.7383 39.9057 57.7008L39.4553 57.4381C39.1551 57.2504 38.8924 57.0252 38.6296 56.7625C38.9674 56.8376 39.3052 56.9877 39.6055 57.0628L40.0934 57.1754C40.1685 57.2129 40.2435 57.2129 40.3186 57.2504C40.3936 57.2504 40.4687 57.288 40.5438 57.288C40.6939 57.3255 40.844 57.3255 41.0317 57.363H41.5196C41.6697 57.363 41.8199 57.363 41.97 57.3255C42.1201 57.3255 42.2702 57.288 42.4204 57.2504C43.0209 57.1378 43.6214 56.8751 44.1468 56.5373C44.7098 56.162 45.2353 55.7491 45.7232 55.2612Z" fill="#393C42"/>
<path d="M44.8975 43.3639C45.2353 42.7634 45.7232 42.3506 46.2862 42.0503C46.5489 41.8626 46.8492 41.7876 47.1494 41.675C47.4497 41.5999 47.7874 41.5249 48.0877 41.4873C48.2378 41.4498 48.4255 41.4498 48.5756 41.4498C48.7257 41.4498 48.9134 41.4123 49.0635 41.4498C49.4013 41.4873 49.7016 41.5249 50.0018 41.6374C50.6023 41.7876 51.2029 42.1254 51.6532 42.5757L51.6157 42.6508C51.0527 42.5007 50.4898 42.3506 49.9268 42.313C49.3638 42.238 48.7633 42.2755 48.2003 42.3506C47.6373 42.4256 47.0743 42.5382 46.5114 42.7259C45.9859 42.9135 45.4229 43.1763 44.9726 43.4765L44.8975 43.3639Z" fill="#0A2D4D"/>
<path d="M35.6271 44.9778C35.0642 44.8277 34.5012 44.7527 33.9007 44.7527C33.3377 44.7527 32.7372 44.7902 32.1742 44.9403C31.6112 45.0529 31.0482 45.2406 30.5228 45.4658C29.9974 45.691 29.5094 46.0287 29.0215 46.329L28.984 46.2539C29.2842 45.691 29.7346 45.203 30.2601 44.8653C30.5228 44.6776 30.8231 44.5275 31.0858 44.4149C31.2359 44.3398 31.386 44.3023 31.5362 44.2647C31.6863 44.2272 31.8364 44.1521 31.9865 44.1521C32.2868 44.0771 32.6246 44.0396 32.9248 44.0396C33.2626 44.0396 33.5629 44.0395 33.8631 44.1146C34.5012 44.2272 35.1017 44.4524 35.5896 44.9028L35.6271 44.9778Z" fill="#0A2D4D"/>
<path opacity="0.6" d="M31.2064 57.2728C32.6176 57.0399 33.6577 56.2211 33.5294 55.4439C33.4012 54.6667 32.1532 54.2254 30.742 54.4583C29.3308 54.6911 28.2907 55.5099 28.4189 56.2871C28.5472 57.0643 29.7951 57.5056 31.2064 57.2728Z" fill="#FB9C81"/>
<path opacity="0.6" d="M53.0516 53.6717C54.4628 53.4389 55.5029 52.62 55.3746 51.8428C55.2464 51.0656 53.9984 50.6244 52.5872 50.8572C51.176 51.0901 50.1359 51.9089 50.2641 52.6861C50.3924 53.4633 51.6403 53.9045 53.0516 53.6717Z" fill="#FB9C81"/>
<path d="M52.6665 23.7719C52.6665 23.7719 55.3688 21.1822 53.9051 20.1688C52.4413 19.1555 50.4146 21.8578 50.4146 21.8578C50.4146 21.8578 50.7899 18.0295 49.2136 18.2922C47.6373 18.5174 47.7123 21.3698 47.4121 21.4074C47.1493 21.4449 44.8974 19.2305 38.5921 19.6434C32.2867 20.0562 23.8045 23.0213 20.8395 30.6402C17.8744 38.2592 18.6251 48.1676 23.3916 47.4921C28.1957 46.8165 31.7988 37.9214 31.7988 37.9214C31.7988 37.9214 31.6862 42.9507 37.2034 39.9481C42.683 36.9456 44.8974 32.0664 44.8974 32.0664C44.8974 32.0664 47.4871 36.6829 49.5138 35.2191C51.5781 33.7929 51.2403 32.9672 51.2403 32.9672C51.2403 32.9672 53.83 42.0499 57.8459 42.0124C61.8619 41.9749 58.9719 26.0989 52.6665 23.7719Z" fill="#393C42"/>
<path d="M23.2039 46.4038C23.2039 46.4038 19.6759 47.3796 18.0245 49.3313C17.7993 49.594 17.7242 49.9318 17.7618 50.2696C18.0995 52.1837 19.4882 59.0145 22.6409 60.5158C22.9412 60.6659 23.279 60.6659 23.5792 60.5158L28.3833 58.4516C28.3833 58.4516 25.3807 54.2104 23.2039 46.4038Z" fill="#B22453"/>
<path d="M20.1262 47.6797C20.1262 47.6797 21.1396 56.0868 25.3807 59.765" stroke="white" stroke-width="0.7459" stroke-miterlimit="10"/>
<path d="M18.8878 48.6935L18.1371 46.0663L19.7135 44.9028L19.4883 43.4766" stroke="#E52959" stroke-width="2.9837" stroke-miterlimit="10" stroke-linecap="round" stroke-linejoin="round"/>
<path d="M20.5766 44.1144H18.8126C18.6625 44.1144 18.5499 44.0019 18.5499 43.8517V40.0235C18.5499 39.8733 18.6625 39.7607 18.8126 39.7607H20.5766C20.7268 39.7607 20.8394 39.8733 20.8394 40.0235V43.8517C20.8769 44.0019 20.7268 44.1144 20.5766 44.1144Z" fill="#E52959"/>
<path d="M56.8326 40.324C56.8326 40.324 60.4732 39.9486 62.7251 41.1872C63.0254 41.3373 63.2506 41.6376 63.2881 41.9754C63.6634 43.852 64.8269 50.7578 62.4249 53.31C62.1997 53.5352 61.8619 53.6853 61.5241 53.6478L56.3072 53.4226C56.3447 53.4601 57.6208 48.3933 56.8326 40.324Z" fill="#B22453"/>
<path d="M60.173 40.3989C60.173 40.3989 62.2373 48.6184 59.61 53.5726" stroke="white" stroke-width="0.7459" stroke-miterlimit="10"/>
<path d="M61.7117 40.8869L61.449 38.1846L59.5724 37.6967L59.2721 36.2705" stroke="#E52959" stroke-width="2.9837" stroke-miterlimit="10" stroke-linecap="round" stroke-linejoin="round"/>
<path d="M58.484 37.2463L60.1354 36.6083C60.2856 36.5708 60.3606 36.3831 60.2856 36.2705L58.8969 32.705C58.8593 32.5548 58.6717 32.4798 58.5591 32.5548L56.9077 33.1929C56.7575 33.2304 56.6825 33.4181 56.7576 33.5307L58.1462 37.0962C58.1838 37.2463 58.3339 37.2839 58.484 37.2463Z" fill="#E52959"/>
<path d="M19.7885 41.4495C19.0003 31.3159 26.1689 22.1581 36.3776 20.6193C46.3611 19.118 55.7066 25.3858 58.2587 34.9189" stroke="#E52959" stroke-width="2.9837" stroke-miterlimit="10" stroke-linecap="round" stroke-linejoin="round"/>
<path d="M22.3409 15.7402V20.8446" stroke="#E52959" stroke-width="3.4875" stroke-miterlimit="10" stroke-linecap="round" stroke-linejoin="round"/>
<path d="M25.0432 18.2925H19.6011" stroke="#E52959" stroke-width="3.4875" stroke-miterlimit="10" stroke-linecap="round" stroke-linejoin="round"/>
<path d="M113.881 35.4443C114.586 35.4443 115.157 34.8729 115.157 34.1682C115.157 33.4634 114.586 32.8921 113.881 32.8921C113.176 32.8921 112.605 33.4634 112.605 34.1682C112.605 34.8729 113.176 35.4443 113.881 35.4443Z" fill="white"/>
<path d="M45.5356 9.39739C46.2404 9.39739 46.8117 8.82606 46.8117 8.1213C46.8117 7.41654 46.2404 6.84521 45.5356 6.84521C44.8308 6.84521 44.2595 7.41654 44.2595 8.1213C44.2595 8.82606 44.8308 9.39739 45.5356 9.39739Z" fill="#B22453"/>
<path d="M82.7297 30.4527C84.6367 30.4527 86.1826 28.9068 86.1826 26.9998C86.1826 25.0928 84.6367 23.5469 82.7297 23.5469C80.8227 23.5469 79.2767 25.0928 79.2767 26.9998C79.2767 28.9068 80.8227 30.4527 82.7297 30.4527Z" fill="white"/>
<path d="M82.9174 24.7101L83.4053 26.1363C83.4429 26.2114 83.5179 26.2489 83.593 26.2489H85.0943C85.2819 26.2489 85.357 26.4741 85.2068 26.5867L83.9683 27.4874C83.8932 27.525 83.8932 27.6376 83.8932 27.7126L84.3812 29.1388C84.4187 29.3265 84.231 29.4391 84.0809 29.364L82.8423 28.4633C82.7673 28.4257 82.6922 28.4257 82.6171 28.4633L81.3786 29.364C81.2285 29.4766 81.0408 29.3265 81.0783 29.1388L81.5663 27.7126C81.6038 27.6376 81.5663 27.5625 81.4912 27.4874L80.2526 26.5867C80.1025 26.4741 80.1776 26.2489 80.3652 26.2489H81.8665C81.9416 26.2489 82.0166 26.2114 82.0542 26.1363L82.5421 24.7101C82.6172 24.5224 82.8799 24.5224 82.9174 24.7101Z" fill="#393C42"/>
<path d="M68.6552 25.6486C75.5578 25.6486 81.1534 20.053 81.1534 13.1505C81.1534 6.24795 75.5578 0.652344 68.6552 0.652344C61.7527 0.652344 56.1571 6.24795 56.1571 13.1505C56.1571 20.053 61.7527 25.6486 68.6552 25.6486Z" fill="white"/>
<path d="M65.39 13.8258H65.4276C65.4276 13.8258 65.4276 13.8258 65.4651 13.8258C65.5026 13.8633 65.5401 13.9009 65.5401 13.9384L67.8671 16.5656V18.2921H67.8296C66.4784 18.2921 65.3525 19.3805 65.3525 20.7692V20.8443H72.3334V20.7692C72.3334 19.4181 71.245 18.2921 69.8563 18.2921H69.8188V16.5656L72.1458 13.9384C72.1833 13.9009 72.2208 13.8633 72.2208 13.8258C72.2208 13.8258 72.2208 13.8258 72.2584 13.8258H72.2959C75.8239 13.5256 76.6496 10.2227 76.6121 8.49628C76.6121 8.23356 76.3869 8.00837 76.0866 8.00837H73.7972V6.09424H63.8887V8.00837H61.5993C61.3366 8.00837 61.1114 8.23356 61.0739 8.49628C61.0363 10.2227 61.862 13.5631 65.39 13.8258ZM73.7972 9.58471V9.02173H75.5612C75.4861 9.99756 75.0357 12.0618 73.009 12.6623C73.5344 11.724 73.7972 10.6731 73.7972 9.58471ZM63.8887 9.02173V9.54718C63.8887 10.6356 64.1515 11.6865 64.6769 12.6248C62.6502 12.0243 62.2373 9.96003 62.1247 8.9842H63.8887V9.02173Z" fill="#E52959"/>
<path d="M69.0307 9.17199L69.2559 9.92263C69.2934 9.9977 69.3684 10.0728 69.4435 10.0728H70.2317C70.4193 10.0728 70.4944 10.3355 70.3443 10.4481L69.7062 10.8985C69.6312 10.936 69.5936 11.0486 69.6312 11.1237L69.8564 11.8743C69.9314 12.062 69.7062 12.2121 69.5561 12.0995L68.9181 11.6491C68.843 11.6116 68.7679 11.6116 68.6929 11.6491L68.0548 12.0995C67.9047 12.2121 67.6795 12.062 67.7546 11.8743L67.9798 11.1237C68.0173 11.0486 67.9798 10.936 67.9047 10.8985L67.2667 10.4481C67.1165 10.3355 67.1916 10.0728 67.3793 10.0728H68.1674C68.2425 10.0728 68.3176 10.0352 68.3551 9.92263L68.5803 9.17199C68.7304 8.98434 68.9556 8.98434 69.0307 9.17199Z" fill="white"/>
<path d="M77.3626 35.4067C74.1724 35.4067 71.6202 37.9964 71.6202 41.1491C71.6202 42.763 72.2958 44.2643 73.3842 45.2776L71.6202 47.5296L75.1107 46.4411C75.8238 46.7414 76.5744 46.8915 77.3626 46.8915C80.5528 46.8915 83.105 44.3018 83.105 41.1491C83.105 37.9964 80.5153 35.4067 77.3626 35.4067Z" fill="white"/>
<path d="M81.1535 39.5729H73.5345C73.3093 39.5729 73.1592 39.3852 73.1592 39.1976C73.1592 38.9724 73.3468 38.8223 73.5345 38.8223H81.1535C81.3787 38.8223 81.5288 39.0099 81.5288 39.1976C81.5288 39.4228 81.3787 39.5729 81.1535 39.5729Z" fill="#E52959"/>
<path d="M81.1534 41.0368H73.5344C73.3092 41.0368 73.1591 40.8491 73.1591 40.6615C73.1591 40.4363 73.3467 40.2861 73.5344 40.2861H81.1534C81.3786 40.2861 81.5287 40.4738 81.5287 40.6615C81.5287 40.8866 81.3786 41.0368 81.1534 41.0368Z" fill="#E52959"/>
<path d="M81.0408 42.5377H73.5344C73.3092 42.5377 73.1591 42.3501 73.1591 42.1624C73.1591 41.9372 73.3467 41.7871 73.5344 41.7871H81.0408C81.266 41.7871 81.4161 41.9748 81.4161 42.1624C81.4536 42.3501 81.266 42.5377 81.0408 42.5377Z" fill="#E52959"/>
<path d="M9.80516 55.4863C12.9954 55.4863 15.5475 58.076 15.5475 61.2287C15.5475 62.8426 14.872 64.3439 13.7835 65.3572L15.5475 67.6091L12.0571 66.5207C11.344 66.821 10.5933 66.9711 9.80516 66.9711C6.61494 66.9711 4.06277 64.3814 4.06277 61.2287C4.06277 58.0385 6.61494 55.4863 9.80516 55.4863Z" fill="white"/>
<path d="M6.01469 59.6525H13.5961C13.8213 59.6525 13.9715 59.4648 13.9715 59.2772C13.9715 59.052 13.7838 58.9019 13.5961 58.9019H5.97716C5.75197 58.9019 5.60184 59.0895 5.60184 59.2772C5.60184 59.4648 5.7895 59.6525 6.01469 59.6525Z" fill="#B22453"/>
<path d="M6.01453 61.1164H13.596C13.8212 61.1164 13.9713 60.9287 13.9713 60.741C13.9713 60.5159 13.7836 60.3657 13.596 60.3657H5.97699C5.7518 60.3657 5.60168 60.5534 5.60168 60.741C5.60168 60.9662 5.78934 61.1164 6.01453 61.1164Z" fill="#B22453"/>
<path d="M6.08961 62.5797H13.596C13.8212 62.5797 13.9713 62.3921 13.9713 62.2044C13.9713 61.9792 13.7837 61.8291 13.596 61.8291H6.08961C5.86442 61.8291 5.71429 62.0168 5.71429 62.2044C5.71429 62.4296 5.90195 62.5797 6.08961 62.5797Z" fill="#B22453"/>
</svg>
