<svg width="175" height="157" viewBox="0 0 175 157" fill="none" xmlns="http://www.w3.org/2000/svg">
<path d="M53.2114 152.173C43.3168 151.708 33.6374 148.808 25.2485 143.546C14.4935 136.78 4.13281 125.253 8.79331 106.817C17.6124 72.1651 41.4885 89.7776 46.3999 49.326C51.3114 8.87443 109.209 -14.5016 150.795 32.0715C174.671 58.8125 179.834 91.2454 170.871 116.519C162.303 140.646 138.714 156.183 113.081 154.966L53.2114 152.173Z" fill="#A8DADB"/>
<path d="M62.0266 139.333L54.3943 154.756L56.3024 156.863H125.748L126.662 154.756L119.626 139.333H62.0266Z" fill="#069997"/>
<path d="M67.3134 142.632H64.6103L65.445 140.684H68.0686L67.3134 142.632Z" fill="#FAF2F5"/>
<path d="M70.9308 142.632H68.2277L68.9432 140.684H71.5668L70.9308 142.632Z" fill="#FAF2F5"/>
<path d="M74.5084 142.632H71.8053L72.4016 140.684H75.0252L74.5084 142.632Z" fill="#FAF2F5"/>
<path d="M78.086 142.632H75.3829L75.8997 140.684H78.5233L78.086 142.632Z" fill="#FAF2F5"/>
<path d="M81.7034 142.632H78.9605L79.3581 140.684H81.9817L81.7034 142.632Z" fill="#FAF2F5"/>
<path d="M85.281 142.632H82.578L82.8562 140.684H85.4798L85.281 142.632Z" fill="#FAF2F5"/>
<path d="M88.8587 142.632H86.1556L86.3146 140.684H88.9382L88.8587 142.632Z" fill="#FAF2F5"/>
<path d="M92.476 142.632H89.7332L89.8127 140.684H92.3965L92.476 142.632Z" fill="#FAF2F5"/>
<path d="M96.0536 142.632H93.3505L93.271 140.684H95.8946L96.0536 142.632Z" fill="#FAF2F5"/>
<path d="M99.6311 142.632H96.928L96.7293 140.684H99.3529L99.6311 142.632Z" fill="#FAF2F5"/>
<path d="M103.249 142.632H100.506L100.228 140.684H102.851L103.249 142.632Z" fill="#FAF2F5"/>
<path d="M106.826 142.632H104.123L103.686 140.684H106.309L106.826 142.632Z" fill="#FAF2F5"/>
<path d="M110.404 142.632H107.701L107.184 140.684H109.808L110.404 142.632Z" fill="#FAF2F5"/>
<path d="M114.021 142.632H111.278L110.642 140.684H113.266L114.021 142.632Z" fill="#FAF2F5"/>
<path d="M117.599 142.632H114.896L114.14 140.684H116.764L117.599 142.632Z" fill="#FAF2F5"/>
<path d="M66.1209 145.693H63.2986L64.2128 143.546H66.9557L66.1209 145.693Z" fill="#FAF2F5"/>
<path d="M69.8973 145.693H67.0749L67.87 143.546H70.6128L69.8973 145.693Z" fill="#FAF2F5"/>
<path d="M73.6737 145.693H70.8513L71.5271 143.546H74.2699L73.6737 145.693Z" fill="#FAF2F5"/>
<path d="M77.45 145.693H74.5879L75.1444 143.546H77.8873L77.45 145.693Z" fill="#FAF2F5"/>
<path d="M81.2264 145.693H78.3643L78.8015 143.546H81.5444L81.2264 145.693Z" fill="#FAF2F5"/>
<path d="M85.0028 145.693H82.1407L82.4587 143.546H85.2015L85.0028 145.693Z" fill="#FAF2F5"/>
<path d="M88.7394 145.693H85.917L86.076 143.546H88.8189L88.7394 145.693Z" fill="#FAF2F5"/>
<path d="M92.5158 145.693H89.6934L89.7332 143.546H92.476L92.5158 145.693Z" fill="#FAF2F5"/>
<path d="M96.292 145.693H93.4697L93.3902 143.546H96.133L96.292 145.693Z" fill="#FAF2F5"/>
<path d="M100.068 145.693H97.2064L97.0076 143.546H99.7505L100.068 145.693Z" fill="#FAF2F5"/>
<path d="M103.845 145.693H100.983L100.665 143.546H103.408L103.845 145.693Z" fill="#FAF2F5"/>
<path d="M107.621 145.693H104.759L104.322 143.546H107.065L107.621 145.693Z" fill="#FAF2F5"/>
<path d="M111.358 145.693H108.535L107.939 143.546H110.682L111.358 145.693Z" fill="#FAF2F5"/>
<path d="M115.134 145.693H112.312L111.596 143.546H114.339L115.134 145.693Z" fill="#FAF2F5"/>
<path d="M118.911 145.693H116.088L115.253 143.546H117.996L118.911 145.693Z" fill="#FAF2F5"/>
<path d="M64.8488 149.072H61.8277L62.8612 146.687H65.7631L64.8488 149.072Z" fill="#FAF2F5"/>
<path d="M68.7842 149.072H65.8028L66.7171 146.687H69.5792L68.7842 149.072Z" fill="#FAF2F5"/>
<path d="M72.7593 149.072H69.7779L70.5332 146.687H73.3953L72.7593 149.072Z" fill="#FAF2F5"/>
<path d="M76.7344 149.072H73.7531L74.3494 146.687H77.2512L76.7344 149.072Z" fill="#FAF2F5"/>
<path d="M80.7096 149.072H77.7282L78.1655 146.687H81.0673L80.7096 149.072Z" fill="#FAF2F5"/>
<path d="M84.6847 149.072H81.6636L82.0213 146.687H84.8834L84.6847 149.072Z" fill="#FAF2F5"/>
<path d="M88.62 149.072H85.6387L85.8375 146.687H88.7393L88.62 149.072Z" fill="#FAF2F5"/>
<path d="M92.5952 149.072H89.6138L89.6536 146.687H92.5554L92.5952 149.072Z" fill="#FAF2F5"/>
<path d="M96.5704 149.072H93.5891L93.5096 146.687H96.3717L96.5704 149.072Z" fill="#FAF2F5"/>
<path d="M100.545 149.072H97.5243L97.3255 146.687H100.188L100.545 149.072Z" fill="#FAF2F5"/>
<path d="M104.481 149.072H101.499L101.142 146.687H104.044L104.481 149.072Z" fill="#FAF2F5"/>
<path d="M108.456 149.072H105.475L104.958 146.687H107.86L108.456 149.072Z" fill="#FAF2F5"/>
<path d="M112.431 149.072H109.45L108.814 146.687H111.676L112.431 149.072Z" fill="#FAF2F5"/>
<path d="M116.406 149.072H113.425L112.63 146.687H115.532L116.406 149.072Z" fill="#FAF2F5"/>
<path d="M120.381 149.072H117.36L116.446 146.687H119.348L120.381 149.072Z" fill="#FAF2F5"/>
<path d="M63.378 152.808H60.2376L61.3507 150.145H64.4115L63.378 152.808Z" fill="#FAF2F5"/>
<path d="M67.5519 152.808H64.4115L65.4053 150.145H68.4264L67.5519 152.808Z" fill="#FAF2F5"/>
<path d="M71.7655 152.808H68.5854L69.4202 150.145H72.481L71.7655 152.808Z" fill="#FAF2F5"/>
<path d="M75.9394 152.808H72.7991L73.4749 150.145H76.496L75.9394 152.808Z" fill="#FAF2F5"/>
<path d="M80.1133 152.808H76.973L77.4897 150.145H80.5108L80.1133 152.808Z" fill="#FAF2F5"/>
<path d="M84.327 152.808H81.1469L81.5046 150.145H84.5655L84.327 152.808Z" fill="#FAF2F5"/>
<path d="M88.5009 152.808H85.3605L85.5593 150.145H88.5804L88.5009 152.808Z" fill="#FAF2F5"/>
<path d="M92.6748 152.808H89.5344L89.5742 150.145H92.635L92.6748 152.808Z" fill="#FAF2F5"/>
<path d="M96.8884 152.808H93.7082L93.6287 150.145H96.6498L96.8884 152.808Z" fill="#FAF2F5"/>
<path d="M101.062 152.808H97.8822L97.6437 150.145H100.705L101.062 152.808Z" fill="#FAF2F5"/>
<path d="M105.236 152.808H102.096L101.698 150.145H104.719L105.236 152.808Z" fill="#FAF2F5"/>
<path d="M109.41 152.808H106.27L105.713 150.145H108.734L109.41 152.808Z" fill="#FAF2F5"/>
<path d="M113.624 152.808H110.444L109.728 150.145H112.789L113.624 152.808Z" fill="#FAF2F5"/>
<path d="M117.798 152.808H114.657L113.783 150.145H116.804L117.798 152.808Z" fill="#FAF2F5"/>
<path d="M121.971 152.808H118.831L117.797 150.145H120.858L121.971 152.808Z" fill="#FAF2F5"/>
<path d="M20.0095 92.9424C21.7219 92.9424 23.1101 91.5542 23.1101 89.8418C23.1101 88.1294 21.7219 86.7412 20.0095 86.7412C18.2971 86.7412 16.9089 88.1294 16.9089 89.8418C16.9089 91.5542 18.2971 92.9424 20.0095 92.9424Z" fill="#393C42"/>
<path d="M20.0096 88.1724L20.3673 89.3251H21.5599L20.6059 90.0407L20.9636 91.1537L20.0096 90.4779L19.0158 91.1537L19.3736 90.0407L18.4195 89.3251H19.6121L20.0096 88.1724Z" fill="#08D9D6"/>
<path d="M27.9599 92.9424C29.6723 92.9424 31.0605 91.5542 31.0605 89.8418C31.0605 88.1294 29.6723 86.7412 27.9599 86.7412C26.2475 86.7412 24.8593 88.1294 24.8593 89.8418C24.8593 91.5542 26.2475 92.9424 27.9599 92.9424Z" fill="#393C42"/>
<path d="M27.9596 88.1724L28.3174 89.3251H29.5099L28.5559 90.0407L28.9136 91.1537L27.9596 90.4779L26.9658 91.1537L27.3633 90.0407L26.3696 89.3251H27.5621L27.9596 88.1724Z" fill="#08D9D6"/>
<path d="M35.9102 92.9424C37.6226 92.9424 39.0108 91.5542 39.0108 89.8418C39.0108 88.1294 37.6226 86.7412 35.9102 86.7412C34.1978 86.7412 32.8096 88.1294 32.8096 89.8418C32.8096 91.5542 34.1978 92.9424 35.9102 92.9424Z" fill="#393C42"/>
<path d="M35.91 88.1724L36.2677 89.3251H37.4603L36.5062 90.0407L36.864 91.1537L35.91 90.4779L34.9162 91.1537L35.3137 90.0407L34.3199 89.3251H35.5522L35.91 88.1724Z" fill="white"/>
<path d="M37.5795 15.4276C35.592 15.4276 33.9622 13.7978 33.9622 11.8102C33.9622 9.82268 35.592 8.19287 37.5795 8.19287C39.5671 8.19287 41.1969 9.82268 41.1969 11.8102C41.1969 13.7978 39.5671 15.4276 37.5795 15.4276ZM37.5795 8.9879C36.0292 8.9879 34.7572 10.2599 34.7572 11.8102C34.7572 13.3605 36.0292 14.6326 37.5795 14.6326C39.1298 14.6326 40.4019 13.3605 40.4019 11.8102C40.4019 10.2599 39.1298 8.9879 37.5795 8.9879Z" fill="#3F2B50"/>
<path d="M46.6031 3.85997C45.7683 3.85997 45.0925 3.1842 45.0925 2.34942C45.0925 1.51464 45.7683 0.838867 46.6031 0.838867C47.4379 0.838867 48.1136 1.51464 48.1136 2.34942C48.1136 3.1842 47.4379 3.85997 46.6031 3.85997ZM46.6031 1.63389C46.2056 1.63389 45.8876 1.95191 45.8876 2.34942C45.8876 2.74693 46.2056 3.06494 46.6031 3.06494C47.0006 3.06494 47.3186 2.74693 47.3186 2.34942C47.3186 1.95191 47.0006 1.63389 46.6031 1.63389Z" fill="#3F2B50"/>
<path d="M137.872 61.1021H127.418V62.8511H137.872V61.1021Z" fill="white"/>
<path d="M137.872 64.8384H127.418V66.5874H137.872V64.8384Z" fill="white"/>
<path d="M137.872 68.5752H127.418V70.3243H137.872V68.5752Z" fill="white"/>
<path d="M57.455 93.3801C57.455 93.3801 58.9258 74.9354 61.7084 71.0001C64.491 67.0647 114.101 67.3429 117.241 70.205C120.421 73.0274 122.329 92.7043 122.329 92.7043" fill="#FAF2F5"/>
<path d="M50.5781 100.973C50.5781 100.973 38.8912 119.616 39.567 135.755C55.5868 130.269 62.7023 110.235 62.7023 110.235L60.8737 102.483L50.5781 100.973Z" fill="#EBA989"/>
<path d="M130.16 100.973C130.16 100.973 141.847 119.616 141.171 135.755C125.152 130.269 118.036 110.235 118.036 110.235L119.865 102.483L130.16 100.973Z" fill="#EBA989"/>
<path d="M78.4039 72.0337C78.4039 72.0337 57.9717 82.051 54.9904 86.0659C52.009 90.0808 47.8351 103.556 47.8351 103.556L64.2922 109.479L66.2798 107.73L59.7208 131.979H122.687L115.293 108.327L117.479 109.479L131.949 102.324C131.949 102.324 126.861 88.0932 124.674 84.9529C122.488 81.8125 101.42 72.0734 101.42 72.0734" fill="#08D9D6"/>
<path opacity="0.2" d="M55.5073 131.978H65.1271C65.1271 131.978 71.8053 116.396 72.7594 114.726C76.8935 117.827 101.698 117.827 105.673 115.044C109.132 120.451 115.095 131.978 115.095 131.978H123.959L114.498 104.033L70.6128 103.636L55.5073 131.978Z" fill="#393C42"/>
<path d="M101.42 72.0337C101.42 72.0337 100.466 77.4796 89.8922 77.2808C79.3581 77.0821 78.3643 72.0337 78.3643 72.0337L79.0003 66.7865L79.5568 62.2548L99.3927 60.4263L100.665 67.8995L101.42 72.0337Z" fill="#ECA888"/>
<path d="M100.705 67.8998C98.3197 69.4899 94.3446 71.5967 89.8925 71.5569C84.3273 71.4774 80.4714 68.2576 79.0404 66.8265L79.5969 62.2949L99.4328 60.4663L100.705 67.8998Z" fill="#393C42"/>
<path d="M78.3245 46.3145C78.3245 46.3145 73.3556 51.6014 65.6041 50.8462C57.8526 50.0909 58.4886 40.7891 58.4886 40.7891C58.4886 40.7891 50.0613 33.7531 58.2501 27.9494C55.4675 21.2314 61.7085 22.1457 61.7085 22.1457C61.7085 22.1457 58.3296 11.3333 66.0414 7.3582C73.7531 3.38307 79.3581 10.0215 79.3581 10.0215C79.3581 10.0215 83.2935 0.163208 94.1058 0.00420294C104.759 -0.194554 106.27 6.72218 106.27 6.72218C106.27 6.72218 108.695 5.52964 110.642 6.64268C112.59 7.75571 111.636 11.0153 111.636 11.0153C111.636 11.0153 119.427 7.83521 123.522 15.229C127.616 22.6227 120.302 30.414 120.302 30.414C120.302 30.414 125.907 32.1233 125.032 38.5232C124.158 44.9232 118.553 47.2685 118.553 47.2685C118.553 47.2685 116.446 53.2312 108.655 50.4486C100.903 47.5865 78.3245 46.3145 78.3245 46.3145Z" fill="#393C42"/>
<path d="M73.912 46.0363C73.912 46.0363 71.5269 44.4065 69.5393 46.1158C67.5518 47.8251 70.1356 56.8487 73.3157 53.9468" fill="#FFA683"/>
<path d="M105.872 46.0363C105.872 46.0363 108.257 44.4065 110.245 46.1158C112.232 47.8251 109.648 56.8487 106.468 53.9468" fill="#FFA683"/>
<path d="M72.2821 41.9417C72.2821 41.9417 71.6858 55.3379 74.0709 59.3528C76.456 63.3677 85.9565 69.0124 89.9317 69.0124C95.6956 69.0124 104.043 61.4199 106.23 58.1603C108.416 54.9404 107.422 39.2387 107.422 39.2387C107.422 39.2387 98.4782 42.22 94.9403 34.071C89.3752 37.8474 86.7913 32.6797 86.7913 32.6797C86.7913 32.6797 86.9901 38.4039 82.2199 39.7157C77.4498 41.0275 74.6672 39.0399 74.6672 39.0399L72.2821 41.9417Z" fill="#EEA888"/>
<path d="M85.2014 46.1954C85.2014 47.3879 84.4859 48.342 83.6113 48.342C82.7368 48.342 82.0213 47.3879 82.0213 46.1954C82.0213 45.0029 82.7368 44.0488 83.6113 44.0488C84.4859 44.0488 85.2014 45.0029 85.2014 46.1954Z" fill="#393C42"/>
<path d="M96.9676 46.1954C96.9676 47.3879 96.2521 48.342 95.3776 48.342C94.503 48.342 93.7875 47.3879 93.7875 46.1954C93.7875 45.0029 94.503 44.0488 95.3776 44.0488C96.2521 44.0488 96.9676 45.0029 96.9676 46.1954Z" fill="#393C42"/>
<path d="M90.0112 53.1119C89.7727 53.1119 89.4547 53.0722 89.0571 53.0324C88.9776 53.0324 88.8584 52.9529 88.7391 52.8336C87.9839 51.7206 89.3354 45.1616 89.4547 44.4461C89.4944 44.3269 89.5739 44.2871 89.6932 44.2871C89.8124 44.3269 89.8522 44.4064 89.8522 44.5256C89.2559 47.3877 88.5801 51.8796 89.0571 52.6349L89.0969 52.6746C90.1304 52.8734 90.6472 52.6746 90.6472 52.6746C90.7665 52.6349 90.846 52.6746 90.8857 52.7939C90.9255 52.9132 90.8857 52.9927 90.7665 53.0324C90.8062 53.0324 90.5279 53.1119 90.0112 53.1119Z" fill="#393C42"/>
<path d="M80.5902 42.1405C80.4709 42.5777 85.9566 44.0088 86.5926 42.697C87.1889 41.3852 81.0672 40.5504 80.5902 42.1405Z" fill="#393C42"/>
<path d="M98.9155 40.7094C98.995 41.1467 93.39 42.0212 92.913 40.6697C92.436 39.2784 98.5975 39.0399 98.9155 40.7094Z" fill="#393C42"/>
<path d="M87.9442 56.2499V56.2499C90.2931 55.7279 92.4775 54.6358 94.3044 53.0698V53.0698" stroke="#393C42"/>
<path d="M71.7257 47.4673L72.2027 52.9132C72.2027 52.9132 70.6126 51.9989 70.2549 49.9716C69.9369 47.9046 71.7257 47.4673 71.7257 47.4673Z" fill="#393C42"/>
<path d="M107.939 47.189L107.462 52.6349C107.462 52.6349 109.052 51.7206 109.41 49.6933C109.688 47.6262 107.939 47.189 107.939 47.189Z" fill="#FF7684"/>
<path d="M70.4533 91.5912C65.4447 95.3278 67.472 104.789 71.9241 107.889C79.6757 113.256 101.062 113.812 109.688 107.452C115.094 103.477 113.623 92.585 108.654 90.4782C103.129 88.0931 96.729 93.857 90.5675 93.857C83.929 93.857 76.575 87.0595 70.4533 91.5912Z" fill="#069997"/>
<path d="M71.7651 93.6982C72.0036 93.3404 72.2819 93.0224 72.6396 92.7839C72.9974 92.5454 73.4347 92.4261 73.8719 92.3466C74.7465 92.1876 75.621 92.3466 76.4558 92.5056C78.1253 92.8634 79.6756 93.4199 81.2259 93.9367C84.3265 94.9702 87.4271 95.805 90.5277 95.805C93.6283 95.805 96.7289 94.851 99.8296 93.8572C101.38 93.3404 102.97 92.8236 104.639 92.5056C105.474 92.3466 106.349 92.2671 107.223 92.3864C107.661 92.4261 108.098 92.5454 108.456 92.7441C108.853 92.9429 109.211 93.1814 109.489 93.4994C108.774 93.0621 107.979 92.9031 107.184 92.9826C106.389 93.0224 105.633 93.2609 104.878 93.4994C104.123 93.7379 103.367 94.0559 102.612 94.3739L100.346 95.3677C98.8358 96.0435 97.2457 96.6398 95.6159 97.1168C93.9861 97.5938 92.237 97.8721 90.488 97.8721C88.7389 97.8721 87.0296 97.5938 85.3601 97.1565C83.6905 96.7193 82.1402 96.123 80.5899 95.4472C79.8346 95.1292 79.0794 94.7715 78.3241 94.4534C77.5688 94.0957 76.8533 93.7777 76.098 93.4994C75.3427 93.2212 74.5875 92.9826 73.8322 92.9826C73.1564 92.8634 72.3614 93.1416 71.7651 93.6982Z" fill="#08D9D6"/>
<path d="M90.0508 94.6919C90.0508 94.6919 89.7725 92.7044 90.8458 92.1876C91.9191 91.6708 93.0719 91.6708 93.5091 92.1479C93.9464 92.5851 94.3041 94.4932 94.3041 94.4932" fill="#3F2B50"/>
<path d="M92.078 93.38C91.8793 93.38 91.7203 93.2607 91.6805 93.062L91.0048 89.4446L88.6197 87.4173C88.5402 87.3378 88.4607 87.2185 88.4607 87.0993C88.4607 86.98 88.5004 86.8608 88.6197 86.7813L91.3625 84.5154L90.1302 83.9589C90.011 83.9192 89.9315 83.7999 89.8917 83.6807L89.1364 80.5403C89.0967 80.3415 89.2159 80.103 89.4147 80.0633C89.6135 80.0235 89.852 80.1428 89.8917 80.3415L90.6072 83.2831L92.2768 83.9987C92.396 84.0384 92.4756 84.1577 92.5153 84.3167C92.5153 84.4359 92.4756 84.5949 92.3563 84.6744L89.4545 87.0595L91.601 88.8881C91.6805 88.9278 91.7203 89.0471 91.7203 89.1266L92.396 92.903C92.4358 93.1017 92.2768 93.3402 92.078 93.38C92.1178 93.38 92.1575 93.38 92.078 93.38Z" fill="#393C42"/>
<path d="M91.1241 80.5007C91.1241 79.6262 90.4086 78.9106 89.534 78.9106C88.6595 78.9106 87.944 79.6262 87.944 80.5007C87.944 81.3752 88.6595 82.0908 89.534 82.0908C90.4483 82.0908 91.1241 81.3752 91.1241 80.5007Z" fill="#069997"/>
<path d="M70.0559 108.645C70.0559 108.645 69.1416 111.387 67.9093 115.044C65.7627 121.206 62.6621 129.951 61.2708 132.257C58.1702 137.345 50.1007 143.149 42.7864 140.644C36.5852 138.498 37.42 130.627 40.5604 126.374C43.979 121.762 51.9292 116.118 57.5739 108.446C59.6808 105.584 61.4696 102.404 62.5429 98.9054C63.9342 94.334 70.0559 108.645 70.0559 108.645Z" fill="#EEA888"/>
<path opacity="0.2" d="M70.0558 108.644C70.0558 108.644 69.1415 111.387 67.9092 115.044C63.9341 114.368 60.1974 112.142 57.8521 108.843C57.7329 108.684 57.6534 108.565 57.5739 108.406C59.6807 105.544 61.4695 102.363 62.5428 98.8653C63.9341 94.3337 70.0558 108.644 70.0558 108.644Z" fill="#FF927C"/>
<path d="M67.5117 98.3885C67.5117 98.3885 72.8384 97.991 74.4285 98.5873C75.1042 98.8258 78.0856 100.456 78.4036 101.767C78.8011 103.318 76.9726 104.033 76.9726 104.033C76.9726 104.033 77.5688 105.146 77.3303 106.061C77.1316 106.816 75.8993 107.531 75.8993 107.531C75.8993 107.531 76.9726 109.082 75.78 109.956C73.2359 111.785 64.2124 111.029 64.2124 111.029C64.2124 111.029 62.5428 110.036 62.9006 107.174C61.9068 106.697 61.549 105.464 62.1056 103.874C61.072 103.437 61.072 100.018 61.7478 99.581C61.39 98.786 61.8671 97.355 63.3379 95.9637C64.7689 94.5724 65.6832 92.9823 66.518 91.8295C67.3527 90.6768 69.9366 91.0743 72.0434 90.6768C73.2359 90.4382 72.5204 92.5053 71.5266 93.2606C70.5328 94.0556 69.1018 94.0159 69.1018 94.0159C69.1018 94.0159 68.903 95.2482 67.9888 96.1227L67.5117 98.3885Z" fill="#EEA888"/>
<path d="M75.8994 107.69L69.8572 107.293C69.7777 107.293 69.6981 107.213 69.7379 107.134C69.7379 107.054 69.8174 106.975 69.8969 107.014L75.9391 107.412C76.0186 107.412 76.0981 107.491 76.0584 107.571C76.0584 107.611 75.9789 107.69 75.8994 107.69Z" fill="#FF7A74"/>
<path d="M77.0123 104.192H76.9725L73.3949 102.721H69.1018C69.0223 102.721 68.9428 102.642 68.9428 102.562C68.9428 102.483 69.0223 102.403 69.1018 102.403H73.4744L77.0918 103.874C77.1713 103.914 77.2111 103.993 77.1713 104.073C77.1316 104.152 77.0521 104.192 77.0123 104.192Z" fill="#FF7A74"/>
<path d="M110.205 108.645C110.205 108.645 111.119 111.388 112.351 115.045C114.498 121.206 117.599 129.952 118.99 132.257C122.091 137.345 130.16 143.149 137.474 140.645C143.675 138.498 142.841 130.627 139.7 126.374C136.282 121.763 128.331 116.118 122.687 108.446C120.58 105.584 118.791 102.404 117.718 98.9059C116.366 94.3345 110.205 108.645 110.205 108.645Z" fill="#EEA888"/>
<path opacity="0.2" d="M110.205 108.645C110.205 108.645 111.119 111.387 112.351 115.045C116.327 114.369 120.063 112.143 122.409 108.843C122.528 108.684 122.607 108.565 122.687 108.406C120.58 105.544 118.791 102.364 117.718 98.8658C116.366 94.3342 110.205 108.645 110.205 108.645Z" fill="#FF927C"/>
<path d="M112.749 98.389C112.749 98.389 107.422 97.9915 105.832 98.5878C105.156 98.8263 102.175 100.456 101.857 101.768C101.46 103.318 103.288 104.034 103.288 104.034C103.288 104.034 102.692 105.147 102.93 106.061C103.129 106.816 104.361 107.532 104.361 107.532C104.361 107.532 103.288 109.082 104.481 109.957C107.025 111.785 116.048 111.03 116.048 111.03C116.048 111.03 117.718 110.036 117.36 107.174C118.354 106.697 118.712 105.465 118.155 103.875C119.189 103.437 119.189 100.019 118.513 99.5815C118.871 98.7865 118.394 97.3555 116.923 95.9642C115.492 94.5729 114.577 92.9828 113.743 91.83C112.908 90.6772 110.324 91.0748 108.217 90.6772C107.025 90.4387 107.74 92.5058 108.734 93.2611C109.728 94.0164 111.159 94.0164 111.159 94.0164C111.159 94.0164 111.358 95.2486 112.272 96.1232L112.749 98.389Z" fill="#EEA888"/>
<path d="M104.362 107.691C104.282 107.691 104.203 107.611 104.203 107.572C104.203 107.492 104.242 107.413 104.322 107.413L110.364 107.015C110.444 107.015 110.523 107.055 110.523 107.134C110.523 107.214 110.483 107.293 110.404 107.293L104.362 107.691Z" fill="#FF7A74"/>
<path d="M103.288 104.192C103.248 104.192 103.169 104.153 103.169 104.113C103.129 104.033 103.169 103.954 103.248 103.914L106.905 102.443H111.238C111.318 102.443 111.397 102.523 111.397 102.602C111.397 102.682 111.318 102.761 111.238 102.761H106.945L103.368 104.232C103.328 104.192 103.288 104.192 103.288 104.192Z" fill="#FF7A74"/>
<path d="M100.704 57.4054C100.704 58.2004 100.068 58.8762 99.2335 58.8762C98.4385 58.8762 97.7627 58.2401 97.7627 57.4054C97.7627 56.5706 98.3987 55.9346 99.2335 55.9346C100.068 55.9346 100.704 56.6103 100.704 57.4054Z" fill="#069997"/>
<path d="M103.964 58.5977C102.533 58.5977 100.943 58.3989 99.154 58.0014C98.836 57.9219 98.6373 57.6039 98.7168 57.2859C98.7963 56.9679 99.1143 56.7691 99.4323 56.8486C103.765 57.8026 106.945 57.5244 108.615 56.0933C110.006 54.9008 109.927 53.3107 109.927 53.2312C109.927 52.9132 110.165 52.635 110.483 52.5952C110.801 52.5952 111.079 52.8337 111.119 53.1517C111.119 53.2312 111.238 55.3778 109.41 56.9679C108.138 58.0411 106.309 58.5977 103.964 58.5977Z" fill="#08D9D6"/>
<path d="M107.621 43.2538C107.621 43.2538 110.483 43.0948 111.477 44.327C112.471 45.5593 112.987 53.4301 111.397 54.6226C109.807 55.8152 107.104 55.3382 107.104 55.3382C107.104 55.3382 107.422 48.0637 107.621 43.2538Z" fill="#069997"/>
<path d="M112.232 51.8003C112.935 51.8003 113.504 50.6968 113.504 49.3357C113.504 47.9745 112.935 46.8711 112.232 46.8711C111.53 46.8711 110.96 47.9745 110.96 49.3357C110.96 50.6968 111.53 51.8003 112.232 51.8003Z" fill="#08D9D6"/>
<path opacity="0.2" d="M63.6562 15.7858C63.7755 17.1373 64.809 18.4094 66.1606 18.6479C67.0351 18.8069 67.9494 18.5286 68.7444 18.0913C69.937 17.4553 71.0102 16.3423 71.209 14.9907C71.2885 14.474 71.209 13.9175 71.05 13.4404C70.8115 12.7249 70.414 12.0094 69.6984 11.6914C69.3009 11.4926 68.8239 11.4529 68.3469 11.4529C67.8301 11.4131 67.3134 11.4131 66.8363 11.4926C65.0078 11.8504 63.4575 13.9572 63.6562 15.7858Z" fill="#3F2B50"/>
<path opacity="0.2" d="M66.3196 24.2128C67.1147 23.9743 67.8302 23.3383 67.9494 22.5035C68.0687 21.629 67.3532 20.7147 66.4389 20.5954C65.4848 20.4364 64.1731 21.311 64.0141 22.3048C63.8153 23.6563 65.0476 24.5308 66.3196 24.2128Z" fill="#3F2B50"/>
<path opacity="0.2" d="M96.7691 6.96087C96.4908 7.8354 96.6499 8.78943 96.9281 9.70371C97.2064 10.618 97.6436 11.5323 98.3592 12.208C99.1144 12.8838 100.108 13.2018 101.102 13.3608C101.659 13.4403 102.255 13.4801 102.811 13.3211C103.805 13.0031 104.481 12.0888 104.759 11.095C105.355 9.18695 104.64 7.00062 103.129 5.72858C102.613 5.29132 101.977 4.97331 101.341 4.77455C99.3529 4.05902 97.3654 4.93355 96.7691 6.96087Z" fill="#3F2B50"/>
<path d="M43.6218 83.2039H16.9089V65.9121H38.1361L43.6218 70.086V83.2039Z" fill="#069997"/>
<path d="M40.7996 70.6025H19.1352V72.0336H40.7996V70.6025Z" fill="#FAF2F5"/>
<path d="M40.7996 74.4189H19.1352V75.85H40.7996V74.4189Z" fill="#FAF2F5"/>
<path d="M36.4668 78.1953H19.1352V79.6264H36.4668V78.1953Z" fill="#FAF2F5"/>
<path d="M15.0804 69.41H2.08171V44.0884H9.75371V44.8834H2.87673V68.615H15.0804V69.41Z" fill="#A8DADB"/>
<path d="M29.8826 60.8219C38.9087 57.0831 43.1949 46.7351 39.4561 37.709C35.7173 28.6829 25.3693 24.3968 16.3432 28.1356C7.31709 31.8744 3.0309 42.2224 6.76971 51.2485C10.5085 60.2745 20.8565 64.5607 29.8826 60.8219Z" fill="#393C42"/>
<path d="M23.11 59.512C31.4086 59.512 38.136 52.7846 38.136 44.486C38.136 36.1873 31.4086 29.46 23.11 29.46C14.8114 29.46 8.084 36.1873 8.084 44.486C8.084 52.7846 14.8114 59.512 23.11 59.512Z" fill="#08D9D6"/>
<path d="M27.5583 43.2243C28.6337 40.628 27.4009 37.6515 24.8046 36.5761C22.2083 35.5007 19.2318 36.7335 18.1564 39.3298C17.081 41.9261 18.3138 44.9026 20.9101 45.978C23.5064 47.0534 26.4829 45.8206 27.5583 43.2243Z" fill="#FAF2F5"/>
<path d="M23.1101 57.6834C27.0455 57.6834 30.5834 55.9741 32.9684 53.2312C30.8616 49.7729 27.0455 47.4673 22.7126 47.4673C18.5785 47.4673 14.9611 49.5344 12.7748 52.7145C15.1996 55.7356 18.9362 57.6834 23.1101 57.6834Z" fill="#FAF2F5"/>
</svg>
